<?xml version="1.0" encoding="UTF-8" standalone="no"?>
<!-- Created with Inkscape (http://www.inkscape.org/) -->

<svg
   width="512"
   height="512"
   viewBox="0 0 512 512"
   version="1.1"
   id="svg5"
   inkscape:version="1.1.2 (1:1.1+202202050950+0a00cf5339)"
   sodipodi:docname="beach.svg"
   xmlns:inkscape="http://www.inkscape.org/namespaces/inkscape"
   xmlns:sodipodi="http://sodipodi.sourceforge.net/DTD/sodipodi-0.dtd"
   xmlns="http://www.w3.org/2000/svg"
   xmlns:svg="http://www.w3.org/2000/svg">
  <sodipodi:namedview
     id="namedview7"
     pagecolor="#ffffff"
     bordercolor="#666666"
     borderopacity="1.0"
     inkscape:pageshadow="2"
     inkscape:pageopacity="0.0"
     inkscape:pagecheckerboard="0"
     inkscape:document-units="px"
     showgrid="false"
     inkscape:zoom="1.6152344"
     inkscape:cx="342.05562"
     inkscape:cy="197.80411"
     inkscape:window-width="1920"
     inkscape:window-height="1000"
     inkscape:window-x="0"
     inkscape:window-y="44"
     inkscape:window-maximized="1"
     inkscape:current-layer="layer1" />
  <defs
     id="defs2" />
  <g
     inkscape:label="Layer 1"
     inkscape:groupmode="layer"
     id="layer1">
    <g
       id="g103"
       transform="matrix(0.74081173,0,0,0.67725284,0.03600732,-0.00502571)">
      <circle
         cx="179.10794"
         cy="181.97066"
         r="143.89207"
         fill="#ff6884"
         id="circle9" />
      <path
         d="M 394.07971,55.60182 116.93066,208.26465 c -32.01562,41.04785 576.32227,43.58545 571.30177,0.15088 L 419.48215,55.7528 c -7.64948,-4.34526 -17.67978,-4.40488 -25.40244,-0.15098 z"
         fill="#ca8a04"
         id="path11" />
      <path
         d="M 394.07971,55.60182 116.93066,208.26465 c -32.01562,41.04785 576.32227,43.58545 571.30177,0.15088 L 419.48215,55.7528 c -7.64948,-4.34526 -17.67978,-4.40488 -25.40244,-0.15098 z"
         isolation="isolate"
         opacity="0.2"
         id="path13" />
      <path
         d="m 687.08313,756.35742 -70.49878,-1.50256 H 133.16432 L 0,751.84973 c 441.47836,-104.33716 305.73724,-95.35333 687.08313,4.50769 z"
         fill="#f2f2f2"
         isolation="isolate"
         opacity="0.8"
         id="path15" />
      <path
         d="m 622.1795,751.84973 -5.59515,3.00513 H 133.16432 C 463.61853,686.64234 265.5003,692.64813 622.1795,751.84973 Z"
         fill="#e6e6e6"
         id="path17" />
      <path
         d="m 388.59668,42.85742 h 20.80664 L 402.38672,3.30957 C 401.95313,0.86621 400.29199,0 399,0 c -1.29199,0 -2.95312,0.86621 -3.38672,3.30957 z"
         fill="#3f3d56"
         id="path19" />
      <rect
         x="386.62415"
         y="173.34387"
         width="22.94006"
         height="559.51398"
         fill="#3f3d56"
         id="rect21" />
      <path
         d="m 398.15976,260.68814 c -9.78711,0 -18.9874,-3.78983 -25.94308,-10.69524 l -57.89658,-57.48132 4.72964,-4.7646 57.89658,57.48132 c 5.75687,5.71535 13.3562,8.8353 21.50742,8.74458 8.11185,-0.0765 15.68933,-3.32539 21.33804,-9.14783 l 55.32413,-57.03328 4.81924,4.675 -55.32413,57.03328 c -6.90759,7.1207 -16.17453,11.09302 -26.0939,11.18701 -0.11911,0.001 -0.23932,0.001 -0.35736,0.001 v -3e-5 z"
         fill="#3f3d56"
         id="path23" />
      <path
         d="m 406.18164,216.80469 c -28.48828,0 -57.20117,-0.0977 -85.07031,-0.29492 -59.0459,-0.41992 -109.45801,-1.24902 -145.78516,-2.39941 -61.91895,-1.95996 -62.57812,-4.1875 -62.86035,-5.1377 -0.0644,-0.21973 -0.0869,-0.64648 0.49609,-1.03027 L 389.35059,26.18359 c 6.64551,-4.38184 15.19824,-4.32227 21.78613,0.15625 L 690.56738,208.0918 c 0.58301,0.39551 0.55371,0.82324 0.48535,1.04297 -0.34863,1.11719 -1.40723,4.5166 -124.09766,6.51367 -46.68066,0.75977 -103.25586,1.15625 -160.77344,1.15625 z"
         fill="#ca8a04"
         id="path25" />
      <g
         id="g35">
        <path
           d="m 459.39432,486.49445 -35.02914,0.0382 c -3.92194,8.71719 1.43729,18.91238 8.29044,25.57608 6.85315,6.6637 15.44553,11.77582 20.50586,19.88531 11.22882,17.99493 0.64725,41.65912 4.35623,62.54327 4.99432,28.12152 34.47626,45.81927 43.45404,72.93317 5.07867,15.33826 2.77008,32.94324 -6.09158,46.45343 -1.63593,2.49408 -3.52509,4.95624 -4.09729,7.88361 -0.77814,3.98077 1.31693,8.35223 4.90726,10.23944 3.59033,1.88721 8.37903,1.13397 11.21671,-1.76422 -2.7713,3.14917 -1.86273,8.46564 1.24811,11.27991 3.11084,2.81427 7.74503,3.41382 11.84946,2.54712 13.30072,-2.80859 19.99622,-18.17297 20.53418,-31.75641 0.53796,-13.58337 -2.87061,-27.34625 -0.21094,-40.67755 1.69635,19.13263 23.34375,31.28271 25.0401,50.41528 0.31439,3.54547 -19.2796,14.21002 -17.4563,17.26697 4.60956,7.72803 15.59546,7.75446 24.54602,6.82843 15.40881,-1.59412 32.52118,-4.07745 42.18652,-16.18335 6.51184,-8.15613 8.19916,-19.13361 8.41345,-29.56818 0.55939,-27.24182 -7.55603,-54.5968 -22.88104,-77.12622 -20.39648,-29.98505 -52.82098,-51.23627 -68.83252,-83.77466 -5.44177,-11.05872 -8.77228,-23.05023 -14.06677,-34.18024 -5.29456,-11.12997 -13.08334,-21.77951 -24.35104,-26.77426 -11.26767,-4.99475 -26.43762,-2.53131 -32.93991,7.93906"
           fill="#3f3d56"
           id="path27" />
        <path
           d="m 568.01141,725.8775 c -0.69751,0 -1.38086,-0.14893 -2.02368,-0.44873 -0.50073,-0.23291 -0.71729,-0.82812 -0.48413,-1.32861 0.23316,-0.50049 0.82739,-0.71826 1.32886,-0.48389 1.10327,0.51318 2.16553,0.17676 2.86206,-0.19727 1.43018,-0.7666 2.55054,-2.3374 2.78833,-3.90869 0.45972,-3.03564 -1.06177,-6.1377 -2.40405,-8.87451 -3.91455,-7.979 -7.78491,-16.5249 -8.36597,-25.55518 -0.65503,-10.18213 3.5481,-19.6665 10.70825,-24.1626 5.32251,-3.34229 12.35913,-4.21631 19.81396,-2.46436 6.38599,1.50195 12.27002,4.65186 18.23633,8.02295 0.48071,0.27148 0.65039,0.88184 0.37866,1.3623 -0.27173,0.48145 -0.88135,0.65088 -1.36255,0.37891 -6.05835,-3.42285 -11.57251,-6.37354 -17.71045,-7.81689 -6.92993,-1.62988 -13.42676,-0.84424 -18.29248,2.21045 -6.54712,4.11133 -10.38452,12.88037 -9.77563,22.34082 0.55737,8.66455 4.33936,17.00391 8.16528,24.80273 1.39868,2.85156 3.1394,6.40039 2.58618,10.05469 -0.33252,2.19727 -1.83203,4.30566 -3.82056,5.37207 -0.86328,0.46289 -1.75659,0.6958 -2.62842,0.6958 v 0 z"
           fill="#2f2e41"
           id="path29" />
        <path
           d="m 509.73431,503.89847 c 5.14105,10.20047 2.42822,23.74826 -6.24411,31.18265 -1.86234,1.5965 -3.95874,2.93335 -5.62402,4.73444 -1.66528,1.80109 -2.88739,4.2406 -2.46744,6.65735 -5.6814,-5.63605 -11.47427,-11.42664 -14.91052,-18.65399 -3.43628,-7.22742 -4.10703,-16.30032 0.36505,-22.93683 2.13351,-3.16614 5.24329,-5.54001 7.66452,-8.49194 2.42126,-2.95193 4.16815,-6.97137 2.8587,-10.55768"
           fill="#2f2e41"
           id="path31" />
        <path
           d="m 611.90485,699.8111 c -2.71692,8.30768 1.75659,17.86768 9.09601,22.61432 7.33942,4.74664 16.82422,5.23834 25.29694,3.09082 16.38403,-4.15283 29.84033,-18.18103 33.30798,-34.72363 1.44226,-6.88043 1.34088,-14.25366 4.60608,-20.47937 2.05206,-3.91266 5.43933,-7.44806 5.53717,-11.86511 0.0795,-3.5896 -2.25031,-6.9975 -5.4292,-8.66675 -3.17889,-1.66925 -7.05054,-1.72833 -10.47241,-0.64087 -8.15625,2.59198 -13.16254,10.85193 -15.75739,19.0072 -2.59491,8.15533 -3.56287,16.87524 -7.33472,24.55737 -3.77185,7.68219 -11.56812,14.39014 -20.04565,13.21808 -7.33112,-1.01355 -13.53638,-7.62347 -20.88232,-6.72345"
           fill="#3f3d56"
           id="path33" />
      </g>
      <g
         id="g65">
        <path
           id="uuid-f7060501-f5d9-4441-8839-83ccb24c5514-1646"
           d="m 202.23212,596.14337 c -9.91676,1.51996 -17.17084,7.86884 -16.20245,14.17975 0.96838,6.31097 9.79149,10.19305 19.71159,8.6712 3.97101,-0.55359 7.75172,-2.05005 11.02579,-4.36426 l 71.73747,-10.80792 2.70352,-24.78223 -77.14529,17.9635 c -3.81828,-1.22742 -7.87498,-1.52234 -11.83057,-0.86005 h -6e-5 z"
           fill="#ffb6b6" />
        <polygon
           points="366.68433,578.97766 284.93851,606.49622 288.92178,578.45148 364.35733,542.80377 382.94525,544.47235 "
           fill="#e6e6e6"
           id="polygon38" />
        <polygon
           points="232.17526,675.48987 217.57631,712.41669 198.68349,699.53522 209.8474,660.89087 "
           fill="#ffb6b6"
           id="polygon40" />
        <polygon
           points="171.20306,661.74963 132.5587,698.67645 148.01645,714.99298 187.51958,684.07745 "
           fill="#ffb6b6"
           id="polygon42" />
        <polygon
           points="347.2496,527.78247 353.26093,554.40417 390.18777,541.5227 389.75839,538.51703 379.8826,519.19489 "
           fill="#ffb6b6"
           id="polygon44" />
        <path
           d="m 376.44754,670.33728 1.00357,12.89838 c 0,0 4.14899,54.08521 -29.3428,58.37909 -33.49179,4.29388 -48.09076,8.58759 -67.84232,-24.90411 l -30.9155,-54.96088 -18.05769,21.48596 -24.0217,-18.90973 c 0,0 17.17528,-66.98352 30.91548,-69.55981 1.71751,-0.32202 3.43504,-0.48309 5.12575,-0.51825 11.37514,-0.237 22.09795,5.3269 28.90395,14.4444 l 38.96524,52.19867 14.16959,-6.44073 51.09644,15.88715 v -1.2e-4 z"
           fill="#2f2e41"
           id="path46" />
        <path
           d="m 190.95462,710.69916 8.67735,-12.80438 19.91531,9.45471 c 0,0 6.61659,23.1012 -1.11227,25.67755 -7.72886,2.57635 -29.19798,-0.85876 -29.19798,-0.85876 0,0 -39.50311,8.58759 -40.36188,0.85876 -0.85877,-7.72883 18.03406,-9.44641 18.03406,-9.44641 l 24.04538,-12.88147 5e-5,-6e-5 z"
           fill="#ffb6b6"
           id="path48" />
        <path
           d="m 275.11343,700.39398 -59.68408,-37.60638 -30.48611,27.30127 -20.61032,-24.04541 c 0,0 37.7856,-55.81964 48.94951,-58.39594 11.16393,-2.57629 29.19798,-4.29382 29.19798,-4.29382 l 54.96088,50.66705 -22.32782,46.37323 v -6e-5 l -3e-5,6e-5 z"
           fill="#2f2e41"
           id="path50" />
        <path
           d="m 136.7197,695.38025 12.62109,18.00421 -0.49403,5.55408 c 0,0 -5.12416,22.31769 -17.14685,14.76801 -12.02269,-7.54968 -12.88146,-9.26721 -12.88146,-9.26721 0,0 -34.35054,7.72888 -37.7856,-6.01135 -3.43506,-13.74023 6.01136,-11.16394 6.01136,-11.16394 l 8.57749,5.15259 33.43514,-11.17651 7.66286,-5.8598 v -6e-5 z"
           fill="#ffb6b6"
           id="path52" />
        <circle
           cx="357.55478"
           cy="509.74847"
           r="27.480431"
           fill="#ffb6b6"
           id="circle54" />
        <path
           d="m 351.11404,548.82227 39.50314,-12.02271 c 0,0 15.45776,36.06812 12.88147,52.38458 -2.57629,16.31653 -26.04749,94.05151 -26.04749,94.05151 l -52.10001,-28.78552 c 0,0 -0.85876,-17.17529 -3.43506,-24.90411 -2.5763,-7.72882 -10.73453,-31.34485 7.29947,-51.09644 18.03403,-19.75159 21.8985,-29.62738 21.8985,-29.62738 l -3e-5,6e-5 z"
           fill="#e6e6e6"
           id="path56" />
        <g
           id="g61">
          <path
             id="uuid-7983f39c-8b8a-4730-a614-b04825bdb0c6-1647"
             d="m 264.17029,729.14673 c -6.42892,7.70203 -7.66602,17.26233 -2.7637,21.35297 4.90228,4.09058 14.08621,1.16229 20.51639,-6.54333 2.61081,-3.04285 4.45496,-6.66669 5.37811,-10.56836 l 60.85678,-68.23883 -18.85889,-10.19397 -55.68997,67.00739 c -3.67487,1.60657 -6.91144,4.07001 -9.43875,7.18427 l 3e-5,-6e-5 v -6e-5 z"
             fill="#ffb6b6" />
          <polygon
             points="390.75183,603.13232 345.05267,676.28448 349.17725,675.34314 324.20197,656.99396 330.32925,652.08545 365.99234,576.65717 381.4147,566.14783 "
             fill="#e6e6e6"
             id="polygon59" />
        </g>
        <path
           d="m 332.22122,505.0253 c 7.0477,-0.0169 7.44781,0.0301 8.58762,0 8.7413,-0.2305 11.02713,-3.66956 15.45776,-3.43506 7.90793,0.41855 -2.52933,40.06638 -6.87012,58.3959 -4.25714,17.9765 10.1301,34.0849 11.16391,35.20929 14.60327,15.88196 40.25424,18.78607 44.6557,12.02271 3.56262,-5.4743 -9.06335,-13.79797 -6.01135,-25.76288 2.98343,-11.69617 16.75949,-10.45068 20.61032,-21.46906 4.03281,-11.53912 -9.51959,-17.35895 -18.03403,-45.51447 -4.88986,-16.16986 -4.02484,-19.18277 -8.58762,-29.19794 -12.19629,-26.77005 -71.97723,-15.37207 -65.26602,9.44641 1.29822,4.80084 -2.15665,10.32059 4.29382,10.30515 v -6e-5 z"
           fill="#2f2e41"
           id="path63" />
      </g>
    </g>
  </g>
</svg>
