<?xml version="1.0" encoding="UTF-8" standalone="no"?>
<!-- Generator: Adobe Illustrator 19.0.0, SVG Export Plug-In . SVG Version: 6.00 Build 0)  -->

<svg
   version="1.1"
   id="Layer_1"
   x="0px"
   y="0px"
   viewBox="0 0 480.008 480.008"
   style="enable-background:new 0 0 480.008 480.008;"
   xml:space="preserve"
   sodipodi:docname="deluxe.svg"
   inkscape:version="1.2 (1:1.2.1+202207142221+cd75a1ee6d)"
   xmlns:inkscape="http://www.inkscape.org/namespaces/inkscape"
   xmlns:sodipodi="http://sodipodi.sourceforge.net/DTD/sodipodi-0.dtd"
   xmlns="http://www.w3.org/2000/svg"
   xmlns:svg="http://www.w3.org/2000/svg"><defs
   id="defs193" /><sodipodi:namedview
   id="namedview191"
   pagecolor="#ffffff"
   bordercolor="#666666"
   borderopacity="1.0"
   inkscape:showpageshadow="2"
   inkscape:pageopacity="0.0"
   inkscape:pagecheckerboard="0"
   inkscape:deskcolor="#d1d1d1"
   showgrid="false"
   inkscape:zoom="1.660389"
   inkscape:cx="239.70287"
   inkscape:cy="240.004"
   inkscape:window-width="1920"
   inkscape:window-height="1000"
   inkscape:window-x="0"
   inkscape:window-y="44"
   inkscape:window-maximized="1"
   inkscape:current-layer="Layer_1" />
<path
   style="fill:#0000ff"
   d="M314.823,472H165.191c-8.512,0-15.536-6.664-15.976-15.16l-16.328-312  c-0.48-9.16,6.816-16.84,15.976-16.84h182.28c9.168,0,16.456,7.68,15.976,16.84l-16.328,312  C330.359,465.336,323.335,472,314.823,472z"
   id="path118" />
<path
   style="fill:#E65039;"
   d="M292.007,128h-96V96c0-8.84,7.16-16,16-16h64c8.84,0,16,7.16,16,16V128z"
   id="path120" />
<path
   style="fill:#0000ff"
   d="M292.007,40h-96V24c0-8.84,7.16-16,16-16h64c8.84,0,16,7.16,16,16V40z"
   id="path122" />
<rect
   x="220.007"
   y="40"
   style="fill:#AD3C2B;"
   width="48"
   height="40"
   id="rect124" />
<g
   id="g130">
	<circle
   style="fill:#E65039;"
   cx="244.007"
   cy="232"
   r="32"
   id="circle126" />
	<path
   style="fill:#E65039;"
   d="M268.007,368h-64v-24c0-8.84,7.16-16,16-16h64v24C284.007,360.84,276.847,368,268.007,368z"
   id="path128" />
</g>
<path
   d="M348.559,127.488c-4.504-4.76-10.856-7.488-17.408-7.488h-31.144V96c0-13.232-10.768-24-24-24V48h16c4.424,0,8-3.576,8-8V24  c0-13.232-10.768-24-24-24h-64c-10.416,0-19.216,6.712-22.528,16h-25.472c-13.232,0-24,10.768-24,24c0,4.424,3.576,8,8,8  s8-3.576,8-8c0-4.416,3.584-8,8-8h24v8c0,4.424,3.576,8,8,8h16v24c-13.232,0-24,10.768-24,24v24h-39.144  c-6.552,0-12.904,2.728-17.416,7.488c-4.504,4.752-6.896,11.232-6.552,17.768l16.32,312.008c0.672,12.752,11.2,22.744,23.976,22.744  h149.624c12.776,0,23.304-9.992,23.976-22.752l16.32-311.992C355.463,138.72,353.071,132.232,348.559,127.488z M204.007,24  c0-4.416,3.584-8,8-8h64c4.416,0,8,3.584,8,8v8h-16h-48h-16V24z M228.007,48h32v24h-32V48z M204.007,96c0-4.416,3.584-8,8-8h8h16v8  c0,4.424,3.576,8,8,8c4.424,0,8-3.576,8-8v-8h16h8c4.416,0,8,3.584,8,8v24h-80V96z M322.815,456.416  c-0.224,4.256-3.736,7.584-7.992,7.584H165.191c-4.256,0-7.776-3.328-7.992-7.576l-16.32-312.008  c-0.12-2.208,0.656-4.312,2.176-5.92s3.592-2.496,5.808-2.496h47.144h96h39.144c2.216,0,4.28,0.88,5.808,2.496  s2.296,3.712,2.176,5.928L322.815,456.416z"
   id="path132" />
<path
   d="M244.007,272c22.056,0,40-17.944,40-40s-17.944-40-40-40s-40,17.944-40,40S221.951,272,244.007,272z M244.007,208  c13.232,0,24,10.768,24,24s-10.768,24-24,24c-13.232,0-24-10.768-24-24S230.775,208,244.007,208z"
   id="path134" />
<path
   d="M244.007,184c4.424,0,8-3.576,8-8v-8c0-4.424-3.576-8-8-8s-8,3.576-8,8v8C236.007,180.424,239.583,184,244.007,184z"
   id="path136" />
<path
   d="M252.007,296v-8c0-4.424-3.576-8-8-8s-8,3.576-8,8v8c0,4.424,3.576,8,8,8C248.431,304,252.007,300.424,252.007,296z"
   id="path138" />
<path
   d="M308.007,224h-8c-4.424,0-8,3.576-8,8s3.576,8,8,8h8c4.424,0,8-3.576,8-8S312.431,224,308.007,224z"
   id="path140" />
<path
   d="M180.007,240h8c4.424,0,8-3.576,8-8s-3.576-8-8-8h-8c-4.424,0-8,3.576-8,8S175.583,240,180.007,240z"
   id="path142" />
<path
   d="M283.607,200.4c2.048,0,4.096-0.784,5.656-2.344l5.656-5.656c3.128-3.128,3.128-8.184,0-11.312s-8.184-3.128-11.312,0  l-5.656,5.656c-3.128,3.128-3.128,8.184,0,11.312C279.511,199.616,281.559,200.4,283.607,200.4z"
   id="path144" />
<path
   d="M204.407,282.912l5.656-5.656c3.128-3.128,3.128-8.184,0-11.312s-8.184-3.128-11.312,0l-5.656,5.656  c-3.128,3.128-3.128,8.184,0,11.312c1.56,1.56,3.608,2.344,5.656,2.344S202.839,284.48,204.407,282.912z"
   id="path146" />
<path
   d="M198.751,198.056c1.56,1.56,3.608,2.344,5.656,2.344s4.096-0.784,5.656-2.344c3.128-3.128,3.128-8.184,0-11.312  l-5.656-5.656c-3.128-3.128-8.184-3.128-11.312,0s-3.128,8.184,0,11.312L198.751,198.056z"
   id="path148" />
<path
   d="M294.919,271.6l-5.656-5.656c-3.128-3.128-8.184-3.128-11.312,0s-3.128,8.184,0,11.312l5.656,5.656  c1.56,1.56,3.608,2.344,5.656,2.344s4.096-0.784,5.656-2.344C298.047,279.792,298.047,274.728,294.919,271.6z"
   id="path150" />
<path
   d="M220.007,400c0-4.424-3.576-8-8-8h-32c-4.424,0-8,3.576-8,8s3.576,8,8,8h32C216.431,408,220.007,404.424,220.007,400z"
   id="path152" />
<path
   d="M300.007,392h-56c-4.424,0-8,3.576-8,8s3.576,8,8,8h56c4.424,0,8-3.576,8-8S304.431,392,300.007,392z"
   id="path154" />
<path
   d="M276.007,424h-64c-4.424,0-8,3.576-8,8s3.576,8,8,8h64c4.424,0,8-3.576,8-8S280.431,424,276.007,424z"
   id="path156" />
<path
   d="M204.007,376h64c13.232,0,24-10.768,24-24v-24c0-4.424-3.576-8-8-8h-64c-13.232,0-24,10.768-24,24v24  C196.007,372.424,199.583,376,204.007,376z M212.007,344c0-4.416,3.584-8,8-8h56v16c0,4.416-3.584,8-8,8h-56V344z"
   id="path158" />
<g
   id="g160">
</g>
<g
   id="g162">
</g>
<g
   id="g164">
</g>
<g
   id="g166">
</g>
<g
   id="g168">
</g>
<g
   id="g170">
</g>
<g
   id="g172">
</g>
<g
   id="g174">
</g>
<g
   id="g176">
</g>
<g
   id="g178">
</g>
<g
   id="g180">
</g>
<g
   id="g182">
</g>
<g
   id="g184">
</g>
<g
   id="g186">
</g>
<g
   id="g188">
</g>
</svg>
