<?xml version="1.0" encoding="UTF-8" standalone="no"?>
<!-- Created with Inkscape (http://www.inkscape.org/) -->

<svg
   width="512.0px"
   height="512.0px"
   viewBox="0 0 512.0 512.0"
   version="1.1"
   id="SVGRoot"
   sodipodi:docname="nature.svg"
   inkscape:version="1.1.2 (1:1.1+202202050950+0a00cf5339)"
   xmlns:inkscape="http://www.inkscape.org/namespaces/inkscape"
   xmlns:sodipodi="http://sodipodi.sourceforge.net/DTD/sodipodi-0.dtd"
   xmlns="http://www.w3.org/2000/svg"
   xmlns:svg="http://www.w3.org/2000/svg">
  <sodipodi:namedview
     id="namedview1671"
     pagecolor="#ffffff"
     bordercolor="#666666"
     borderopacity="1.0"
     inkscape:pageshadow="2"
     inkscape:pageopacity="0.0"
     inkscape:pagecheckerboard="0"
     inkscape:document-units="px"
     showgrid="true"
     inkscape:zoom="0.73673541"
     inkscape:cx="202.92224"
     inkscape:cy="249.07178"
     inkscape:window-width="1920"
     inkscape:window-height="1000"
     inkscape:window-x="0"
     inkscape:window-y="44"
     inkscape:window-maximized="1"
     inkscape:current-layer="layer1">
    <inkscape:grid
       type="xygrid"
       id="grid1677" />
  </sodipodi:namedview>
  <defs
     id="defs1666" />
  <g
     inkscape:label="Layer 1"
     inkscape:groupmode="layer"
     id="layer1">
    <g
       id="g1881"
       transform="matrix(0.58545541,0,0,0.58820424,4.1255424,91.314806)">
      <polygon
         points="90.359,674 80.859,603 71.359,674 "
         fill="#3f3d56"
         id="polygon1704" />
      <polygon
         points="80.359,680 70.859,609 61.359,680 "
         fill="#3f3d56"
         id="polygon1706" />
      <polygon
         points="68.359,680 58.859,609 49.359,680 "
         fill="#3f3d56"
         id="polygon1708" />
      <polygon
         points="662.359,652 652.859,581 643.359,652 "
         fill="#3f3d56"
         id="polygon1710" />
      <polygon
         points="675.359,652 665.859,581 656.359,652 "
         fill="#3f3d56"
         id="polygon1712" />
      <polygon
         points="685.359,667 675.859,596 666.359,667 "
         fill="#3f3d56"
         id="polygon1714" />
      <polygon
         points="698.359,667 688.859,596 679.359,667 "
         fill="#3f3d56"
         id="polygon1716" />
      <polygon
         points="754.359,678 744.859,607 735.359,678 "
         fill="#3f3d56"
         id="polygon1718" />
      <polygon
         points="767.359,678 757.859,607 748.359,678 "
         fill="#3f3d56"
         id="polygon1720" />
      <polygon
         points="763.749,652.74 763.859,651.87 767.859,622 772.239,654.75 774.359,670.58 775.889,682 759.829,682 760.369,678 "
         fill="#3f3d56"
         id="polygon1722" />
      <polygon
         points="776.349,655.74 780.859,622 785.679,658.04 785.679,658.05 787.089,668.58 788.889,682 772.829,682 774.359,670.58 "
         fill="#3f3d56"
         id="polygon1724" />
      <polygon
         points="793.859,618 799.699,661.62 800.359,666.58 802.419,682 785.299,682 787.089,668.58 788.409,658.73 "
         fill="#3f3d56"
         id="polygon1726" />
      <polygon
         points="806.859,618 812.859,662.87 813.179,665.21 815.419,682 798.299,682 800.359,666.58 800.979,661.95 "
         fill="#3f3d56"
         id="polygon1728" />
      <polygon
         points="816.859,633 821.469,667.49 823.359,681.58 823.419,682 810.299,682 812.569,665.05 812.859,662.87 "
         fill="#3f3d56"
         id="polygon1730" />
      <polygon
         points="834.989,671.31 836.419,682 823.299,682 823.359,681.58 825.109,668.5 829.859,633 "
         fill="#3f3d56"
         id="polygon1732" />
      <circle
         cx="95.858887"
         cy="95.5"
         r="95.5"
         fill="#ff6584"
         id="circle1734" />
      <path
         d="M 1035.0286,793.52344 H 165.02856 c 0,0 176.64,-67.87 436.81,-67.1 1.46,0 2.92,0.01 4.38,0.02 q 7.785,0.045 15.66,0.17 6.16508,0.105 12.38,0.26 c 1.79,0.04 3.58,0.09 5.38,0.14 0.72,0.02 1.43,0.04 2.14,0.06 1.65,0.05 3.31,0.1 4.98,0.16 3.13,0.1 6.27,0.22 9.42,0.34 q 4.13992,0.165 8.32,0.36 c 1.06,0.04 2.14,0.09 3.21,0.15 q 7.575,0.345 15.21,0.8 c 1.18,0.07 2.36,0.14 3.55,0.21 1.63,0.09 3.27,0.2 4.9,0.3 q 3.24,0.21 6.48,0.43 c 2.81,0.19 5.61,0.39 8.42,0.6 q 8.82,0.645 17.74,1.42 c 4.42,0.37 8.85,0.78 13.3,1.2 q 2.83494,0.27007 5.69,0.56 4.365,0.42 8.75,0.89 c 1.86,0.2 3.73,0.4 5.59,0.6 2.25,0.24 4.49,0.49 6.74,0.75 2.24,0.26 4.5,0.52 6.75,0.79 q 3.39,0.405 6.78,0.82 c 2.27,0.28 4.53,0.56 6.8,0.86 2.24,0.28 4.48,0.58 6.73,0.88 q 14.37,1.905 28.95,4.15 c 1.86,0.28 3.74,0.57 5.61,0.87 q 2.895,0.45 5.81,0.93 4.05,0.645 8.13,1.34 c 2.33,0.39 4.66,0.78 7,1.19 2.11,0.36005 4.24,0.73 6.36,1.11005 q 0.33,0.06 0.66,0.12 c 2.34,0.41 4.69,0.84 7.03,1.27 2.35,0.43 4.71,0.87 7.06,1.31 q 3.54006,0.66 7.08,1.35 c 2.37,0.46 4.73,0.92 7.1,1.39 1.85,0.37 3.69,0.74 5.54,1.11 0.92,0.19 1.84,0.37 2.76,0.56 q 2.97,0.615 5.96,1.24 3.57,0.75 7.15,1.51 c 0.27,0.06 0.53,0.12 0.8,0.17 q 5.55,1.2 11.11,2.44 c 0.5,0.11 1.01,0.23 1.52,0.34 q 2.91,0.645 5.82,1.32 c 1.94,0.44995 3.88,0.89 5.83,1.35 a 2.0484,2.0484 0 0 1 0.24,0.05 c 2.75,0.64 5.49,1.29 8.25,1.96 q 2.055,0.48 4.11,0.99 c 1.88,0.45 3.75,0.91 5.63,1.38 1.23,0.31 2.46,0.62 3.7,0.93 0.91,0.21 1.82,0.44 2.73,0.68 q 2.88,0.705 5.77,1.46 2.685,0.68994 5.37,1.38995 a 0.83417,0.83417 0 0 1 0.15,0.04 c 0.43,0.11 0.85,0.22 1.28,0.33 1.31,0.34 2.62,0.69 3.94,1.04 1.35,0.36 2.71,0.72 4.07,1.09 1.19,0.32 2.39,0.64 3.58,0.97 a 0.29566,0.29566 0 0 1 0.1,0.02 c 0.17,0.04 0.34,0.09 0.51,0.14 1.38,0.37 2.76,0.74 4.14,1.13 1.38,0.38 2.76,0.76 4.15,1.15 0.14,0.03 0.28,0.07 0.42,0.11 q 1.60493,0.43506 3.21,0.9 c 0,0 0,-0.01 0.01,0 0.61,0.16 1.22,0.34 1.83,0.51 q 2.445,0.68994 4.89,1.38995 c 1.05,0.3 2.11,0.6 3.16,0.91 2.93004,0.85 5.87004,1.7 8.81004,2.57 2.94,0.87 5.89,1.75 8.83,2.64 1.77,0.53 3.53,1.07 5.3,1.62 q 2.49,0.75 4.98,1.53 c 2.48,0.77005 4.97,1.54001 7.45,2.33005 z"
         transform="translate(-164.66968,-105.52344)"
         fill="#e6e6e6"
         id="path1736" />
      <path
         d="M 1034.7268,794.47656 C 788.49438,716.5293 565.218,720.68164 421.27222,737.8916 265.325,756.53613 166.36841,794.08008 165.38745,794.457 l -0.71777,-1.86719 c 0.98388,-0.37793 100.17334,-38.01074 256.36523,-56.68457 a 1486.9205,1486.9205 0 0 1 276.89014,-7.083 1444.3248,1444.3248 0 0 1 337.40525,63.748 z"
         transform="translate(-164.66968,-105.52344)"
         fill="#3f3d56"
         id="path1738" />
      <circle
         cx="706.85889"
         cy="199.45055"
         r="163.5"
         fill="#ca8a04"
         id="circle1740" />
      <path
         d="M 993.15005,195.76883 A 163.51275,163.51275 0 0 1 720.71071,368.81244 163.51409,163.51409 0 1 0 993.15005,195.76883 Z"
         transform="translate(-164.66968,-105.52344)"
         opacity="0.2"
         id="path1742" />
      <polygon
         points="698.774,663 707.308,199.451 707.757,199.451 715.842,663 "
         fill="#3f3d56"
         id="polygon1744" />
      <rect
         x="882.30878"
         y="545.73224"
         width="8.0851603"
         height="30.543961"
         transform="rotate(62.23413,891.42177,371.84636)"
         fill="#3f3d56"
         id="rect1746" />
      <polygon
         points="450.189,243.422 422.456,287.501 471.331,298.686 491.981,259.738 "
         fill="#2f2e41"
         id="polygon1748" />
      <path
         d="m 613.09257,602.687 c 0,0 -15.7109,36.00414 -15.7109,46.47807 0,0 6.2189,28.476 4.255,36.33145 l -6.87352,14.729 -14.40166,-5.89158 -3.92772,-39.27724 0.65462,-62.84359 z"
         transform="translate(-164.66968,-105.52344)"
         fill="#ffb9b9"
         id="path1750" />
      <path
         d="m 621.93,387.31683 c 0,0 1.30924,21.60248 -1.30925,28.14869 -2.61849,6.54621 9.81931,18.984 9.81931,18.984 l 19.63862,-25.53021 c 0,0 -13.09241,-13.09241 -9.81931,-27.49406 z"
         transform="translate(-164.66968,-105.52344)"
         fill="#ffb9b9"
         id="path1752" />
      <path
         d="m 583.962,439.03187 v 34.69489 l -2.9458,63.1709 c 0,0 -18.984,35.34951 -0.65462,32.731 18.32938,-2.61851 12.11049,-33.713 12.11049,-33.713 l 6.21889,-61.86165 -0.32731,-37.64069 z"
         transform="translate(-164.66968,-105.52344)"
         fill="#ffb9b9"
         id="path1754" />
      <path
         d="m 576.76112,689.75158 28.14869,-11.12858 3.2731,55.64276 c 0,0 5.89159,17.02013 3.92773,23.56634 0,0 1.30924,11.12855 -1.96387,11.78317 -3.27311,0.65462 -12.43779,1.96387 -13.09241,1.30924 -0.65462,-0.65463 -0.65462,-2.61848 -0.65462,-2.61848 0,0 -6.54621,4.58235 -7.20083,9.81931 0,0 -27.49407,8.51007 -28.14869,0.65462 -0.65462,-7.85545 13.747,-14.40165 13.747,-14.40165 l 11.12855,-17.02014 z"
         transform="translate(-164.66968,-105.52344)"
         fill="#2f2e41"
         id="path1756" />
      <path
         d="m 671.68112,602.687 c 0,0 -15.7109,36.00414 -15.7109,46.47807 0,0 6.2189,28.476 4.255,36.33145 l -6.87351,14.729 -14.40166,-5.89158 -3.92772,-39.27724 0.65462,-62.84359 z"
         transform="translate(-164.66968,-105.52344)"
         fill="#ffb9b9"
         id="path1758" />
      <path
         d="m 636.3316,689.75158 28.14869,-11.12858 3.2731,55.64276 c 0,0 5.89159,17.02013 3.92773,23.56634 0,0 1.30924,11.12855 -1.96387,11.78317 -3.27311,0.65462 -12.43779,1.96387 -13.09241,1.30924 -0.65462,-0.65463 -0.65462,-2.61848 -0.65462,-2.61848 0,0 -6.54621,4.58235 -7.20083,9.81931 0,0 -27.49406,8.51007 -28.14869,0.65462 -0.65463,-7.85545 13.747,-14.40165 13.747,-14.40165 l 11.12855,-17.02014 z"
         transform="translate(-164.66968,-105.52344)"
         fill="#2f2e41"
         id="path1760" />
      <circle
         cx="463.80646"
         cy="266.73712"
         r="20.947861"
         fill="#ffb9b9"
         id="circle1762" />
      <path
         d="m 631.09464,414.15628 16.25581,-8.44172 7.31053,5.82324 c 0,0 17.67476,-0.65462 24.221,7.20082 6.54624,7.85544 10.14658,27.82138 10.14658,27.82138 0,0 -21.60248,-4.58234 -18.984,13.747 l -3.92773,-10.47393 -3.60041,8.83738 -43.85959,15.05627 -19.63862,-33.38565 c 0,0 -13.09241,-3.92773 -17.67476,5.237 0,0 0.98194,-33.05834 13.747,-34.04027 8.58483,-0.66037 15.05627,-0.65462 15.05627,-0.65462 l 7.20083,-1.30925 4.61127,-1.63655 z"
         transform="translate(-164.66968,-105.52344)"
         fill="#ca8a04"
         id="path1764" />
      <path
         d="m 667,412 c 0,0 -10.01434,27.98029 1.58842,40.59849 l -9.67242,33.23875 c 0,0 34.3676,103.10276 24.54829,117.50441 0,0 -36.65876,18.32938 -109.97627,-6.5462 l 29.78524,-115.54055 -4.255,-48.76924 5.89159,-22.91173 13.09241,-1.30924 c 0,0 -7.85545,29.45793 6.54621,34.04028 C 638.95013,446.88732 653,409 653,409 Z"
         transform="translate(-164.66968,-105.52344)"
         fill="#2f2e41"
         id="path1766" />
      <path
         d="m 667.42608,439.03187 v 34.69489 l -2.94579,63.1709 c 0,0 -18.984,35.34951 -0.65462,32.731 18.32938,-2.61851 12.11048,-33.713 12.11048,-33.713 l 4.58235,-62.189 1.30924,-37.31338 z"
         transform="translate(-164.66968,-105.52344)"
         fill="#ffb9b9"
         id="path1768" />
      <path
         d="m 689.02856,446.56 c 0,0 -2.327,-33.6185 -21.784,-33.50208 v 38.87822 c 0,0 14.58318,-8.64924 21.784,-5.37614 z"
         transform="translate(-164.66968,-105.52344)"
         fill="#ca8a04"
         id="path1770" />
      <path
         d="m 616.64874,342.94043 c 0,0 -10.827,2.03656 -13.33084,15.53985 a 24.78991,24.78991 0 0 0 -0.212,6.89493 c 0.25,2.59923 -0.11264,8.08912 -5.75648,14.55341 a 141.51216,141.51216 0 0 0 -10.27621,13.19744 v 0 l 11.31328,3.01174 5.05475,-18.744 a 95.88677,95.88677 0 0 1 11.20451,-25.75249 l 0.10392,-0.16674 c 0,0 3.75752,10.04 13.82869,11.41637 l -3.10528,-4.08841 c 0,0 11.77326,6.80583 18.44347,8.88488 a 4.38253,4.38253 0 0 1 1.41421,7.6208 q -0.071,0.0558 -0.14455,0.11171 c -4.90609,3.72634 -14.9149,12.61776 -10.96075,21.219 3.95415,8.60124 -0.657,10.16948 -0.657,10.16948 l 8.50294,-3.23477 3.89178,-1.66655 -0.39325,2.87748 18.99854,0.398 c 0,0 5.1339,-0.0312 -3.98533,-13.73515 0,0 -2.20039,-5.13845 -0.394,-9.06405 a 20.85263,20.85263 0 0 0 2.10583,-9.55488 c -0.57433,-13.81619 -6.39453,-41.92388 -45.64623,-29.88805 z"
         transform="translate(-164.66968,-105.52344)"
         fill="#2f2e41"
         id="path1772" />
      <ellipse
         cx="629.84216"
         cy="369.99768"
         rx="6.5462098"
         ry="5.8915901"
         transform="rotate(-82.21788,487.04446,411.58844)"
         fill="#2f2e41"
         id="ellipse1774" />
      <ellipse
         cx="614.92456"
         cy="367.95895"
         rx="6.5462098"
         ry="5.8915901"
         transform="rotate(-82.21788,472.12685,409.54972)"
         fill="#2f2e41"
         id="ellipse1776" />
      <rect
         x="635.10638"
         y="368.64755"
         width="13.35208"
         height="1.99985"
         transform="rotate(-3.53879,-1148.517,2982.1687)"
         fill="#2f2e41"
         id="rect1778" />
      <rect
         x="621.0592"
         y="365.66043"
         width="2"
         height="6.5468702"
         transform="rotate(-82.217674,479.26325,410.52445)"
         fill="#2f2e41"
         id="rect1780" />
      <path
         d="m 481.18144,772.44738 c 0,0 0.69056,-14.46983 14.84712,-12.78791"
         transform="translate(-164.66968,-105.52344)"
         fill="#3f3d56"
         id="path1782" />
      <circle
         cx="312.51175"
         cy="646.06885"
         r="7.0852599"
         fill="#ca8a04"
         id="circle1784" />
      <rect
         x="311.35889"
         y="658"
         width="2"
         height="14"
         fill="#3f3d56"
         id="rect1786" />
      <path
         d="m 739.18144,775.44738 c 0,0 0.69056,-14.46983 14.84712,-12.78791"
         transform="translate(-164.66968,-105.52344)"
         fill="#3f3d56"
         id="path1788" />
      <circle
         cx="570.51178"
         cy="649.06885"
         r="7.0852599"
         fill="#ca8a04"
         id="circle1790" />
      <rect
         x="569.35889"
         y="661"
         width="2"
         height="14"
         fill="#3f3d56"
         id="rect1792" />
      <path
         d="m 314.18144,750.44738 c 0,0 0.69056,-14.46983 14.84712,-12.78791"
         transform="translate(-164.66968,-105.52344)"
         fill="#3f3d56"
         id="path1794" />
      <circle
         cx="145.51176"
         cy="624.06885"
         r="7.0852599"
         fill="#ca8a04"
         id="circle1796" />
      <rect
         x="144.35889"
         y="636"
         width="2"
         height="14"
         fill="#3f3d56"
         id="rect1798" />
      <path
         d="m 423.18144,731.44738 c 0,0 0.69056,-14.46983 14.84712,-12.78791"
         transform="translate(-164.66968,-105.52344)"
         fill="#3f3d56"
         id="path1800" />
      <circle
         cx="254.51176"
         cy="605.06885"
         r="7.0852599"
         fill="#ca8a04"
         id="circle1802" />
      <rect
         x="253.35889"
         y="617"
         width="2"
         height="14"
         fill="#3f3d56"
         id="rect1804" />
      <path
         d="m 696.18144,758.44738 c 0,0 0.69056,-14.46983 14.84712,-12.78791"
         transform="translate(-164.66968,-105.52344)"
         fill="#3f3d56"
         id="path1806" />
      <circle
         cx="527.51178"
         cy="632.06885"
         r="7.0852599"
         fill="#ca8a04"
         id="circle1808" />
      <rect
         x="526.35889"
         y="644"
         width="2"
         height="14"
         fill="#3f3d56"
         id="rect1810" />
      <path
         d="m 497.82288,144.98932 9.20568,-7.36279 c -7.15148,-0.789 -10.0899,3.11126 -11.29248,6.19836 -5.587,-2.32 -11.66919,0.72046 -11.66919,0.72046 l 18.41889,6.68671 a 13.938,13.938 0 0 0 -4.6629,-6.24274 z"
         transform="translate(-164.66968,-105.52344)"
         fill="#3f3d56"
         id="path1812" />
      <path
         d="m 637.82288,219.98932 9.20568,-7.36279 c -7.15148,-0.789 -10.0899,3.11126 -11.29248,6.19836 -5.587,-2.32 -11.66919,0.72046 -11.66919,0.72046 l 18.41889,6.68671 a 13.938,13.938 0 0 0 -4.6629,-6.24274 z"
         transform="translate(-164.66968,-105.52344)"
         fill="#3f3d56"
         id="path1814" />
      <path
         d="m 486.82288,283.98932 9.20568,-7.36279 c -7.15148,-0.789 -10.0899,3.11126 -11.29248,6.19836 -5.587,-2.32 -11.66919,0.72046 -11.66919,0.72046 l 18.41889,6.68671 a 13.938,13.938 0 0 0 -4.6629,-6.24274 z"
         transform="translate(-164.66968,-105.52344)"
         fill="#3f3d56"
         id="path1816" />
    </g>
  </g>
</svg>
