<?xml version="1.0" encoding="UTF-8" standalone="no"?>
<!-- Created with Inkscape (http://www.inkscape.org/) -->

<svg
   width="512.0px"
   height="512.0px"
   viewBox="0 0 512.0 512.0"
   version="1.1"
   id="SVGRoot"
   sodipodi:docname="sunlight.svg"
   inkscape:version="1.1.2 (1:1.1+202202050950+0a00cf5339)"
   xmlns:inkscape="http://www.inkscape.org/namespaces/inkscape"
   xmlns:sodipodi="http://sodipodi.sourceforge.net/DTD/sodipodi-0.dtd"
   xmlns="http://www.w3.org/2000/svg"
   xmlns:svg="http://www.w3.org/2000/svg">
  <sodipodi:namedview
     id="namedview1195"
     pagecolor="#ffffff"
     bordercolor="#666666"
     borderopacity="1.0"
     inkscape:pageshadow="2"
     inkscape:pageopacity="0.0"
     inkscape:pagecheckerboard="0"
     inkscape:document-units="px"
     showgrid="true"
     inkscape:zoom="0.73673541"
     inkscape:cx="234.14105"
     inkscape:cy="386.16306"
     inkscape:window-width="1920"
     inkscape:window-height="1000"
     inkscape:window-x="0"
     inkscape:window-y="44"
     inkscape:window-maximized="1"
     inkscape:current-layer="layer1">
    <inkscape:grid
       type="xygrid"
       id="grid1201" />
  </sodipodi:namedview>
  <defs
     id="defs1190" />
  <g
     inkscape:label="Layer 1"
     inkscape:groupmode="layer"
     id="layer1">
    <g
       id="g1289"
       transform="matrix(0.86687391,0,0,0.86279423,87.501462,2.8051676)">
      <circle
         cx="65.78022"
         cy="65.78022"
         r="65.78022"
         fill="#ff6584"
         id="circle1226" />
      <path
         d="m 257.26324,147.77596 2.73657,-11.94423 c -0.46758,-1.24197 0.0326,-2.66622 1.23391,-3.31105 2.11691,-3.51364 5.2536,-5.15692 9.35895,-5.02374 1.09729,-0.58899 2.41374,-0.32998 3.22673,0.53782 1.94629,-2.56897 4.70068,-3.94263 8.10645,-4.35144 -0.27393,-1.1571 0.23781,-2.39747 1.33504,-2.98645 2.15851,-3.28357 5.46533,-4.68204 9.35901,-5.02374 1.30847,-0.70236 2.93856,-0.21106 3.64094,1.09745 l 0.52578,0.9795 9.47663,4.0259 -0.82095,1.41658 -7.87479,-3.93442 c 1.7512,3.80945 0.26578,8.371 -3.47873,10.38099 -3.89289,2.08964 -8.74269,0.62782 -10.83233,-3.26507 l -0.94591,-1.76217 -7.92979,4.25658 0.94591,1.76217 c 2.08964,3.89289 0.62782,8.74269 -3.26507,10.83233 -3.89289,2.08964 -8.74269,0.62782 -10.83233,-3.26507 l -0.41707,-0.77697 -1.27873,10.41476 -2.27023,-0.0597 z"
         fill="#3f3d56"
         id="path1228" />
      <path
         d="m 222.39246,572.81739 c -2.06592,0.12937 -3.20768,-2.43737 -1.64468,-3.93333 l 0.1555,-0.61819 c -0.0205,-0.0495 -0.041,-0.099 -0.0618,-0.14839 -2.08924,-4.9818 -9.16992,-4.94742 -11.24139,0.0418 -1.83859,4.42817 -4.17942,8.86389 -4.75579,13.54594 -0.25838,2.0668 -0.14213,4.17236 0.31648,6.20047 -4.30807,-9.41059 -6.57515,-19.68661 -6.57515,-30.02077 0,-2.59652 0.14213,-5.19301 0.43275,-7.78295 0.239,-2.11854 0.56839,-4.2241 0.99471,-6.31034 2.30575,-11.2772 7.29852,-22.01825 14.50012,-30.98962 3.46197,-1.89248 6.34906,-4.85065 8.09295,-8.39652 0.62649,-1.27891 1.11739,-2.65462 1.34991,-4.05618 -0.39398,0.0517 -1.48556,-5.94866 -1.18841,-6.3168 -0.54906,-0.83317 -1.53178,-1.24733 -2.13144,-2.06034 -2.98232,-4.04341 -7.0912,-3.33741 -9.23621,2.15727 -4.58224,2.31266 -4.62659,6.14806 -1.81495,9.83683 1.78878,2.34682 2.03456,5.52233 3.60408,8.03478 -0.16151,0.20671 -0.32944,0.40695 -0.4909,0.61366 -2.96106,3.79788 -5.52208,7.88002 -7.68104,12.16859 0.61017,-4.76621 -0.29067,-10.50822 -1.82641,-14.20959 -1.74819,-4.21732 -5.02491,-7.76915 -7.91045,-11.41501 -3.46601,-4.37924 -10.57337,-2.46806 -11.18401,3.08332 -0.006,0.0538 -0.0117,0.10745 -0.0173,0.1612 0.4286,0.24178 0.84849,0.49867 1.25864,0.76992 2.33949,1.54723 1.53096,5.17386 -1.24107,5.60174 l -0.0628,0.01 c 0.15503,1.54366 0.41984,3.07444 0.80734,4.57937 -3.70179,14.31579 4.29011,19.5299 15.70147,19.76412 0.25191,0.12916 0.49738,0.25832 0.74929,0.38109 -1.15617,3.25525 -2.07982,6.59447 -2.76441,9.97891 -0.61359,2.99043 -1.03991,6.01317 -1.27885,9.04888 -0.29715,3.83006 -0.27129,7.67959 0.0517,11.50323 l -0.0194,-0.13562 c -0.82024,-4.21115 -3.10671,-8.14462 -6.4266,-10.87028 -4.94561,-4.06264 -11.93282,-5.55869 -17.26826,-8.82425 -2.56833,-1.57196 -5.85945,0.45945 -5.41121,3.43708 l 0.0218,0.14261 c 0.79443,0.32289 1.56947,0.69755 2.31871,1.11733 0.4286,0.24184 0.84848,0.49867 1.25864,0.76992 2.33949,1.54729 1.53096,5.17392 -1.24107,5.6018 l -0.0628,0.01 c -0.0452,0.006 -0.084,0.0129 -0.12911,0.0194 1.36282,3.23581 3.26168,6.23922 5.63854,8.82922 2.31463,12.49713 12.25603,13.68282 22.89022,10.04354 h 0.006 c 1.16259,5.06378 2.86128,10.01127 5.0444,14.72621 h 18.02019 c 0.0646,-0.20022 0.12274,-0.40692 0.18089,-0.60717 -1.6664,0.10341 -3.34571,0.006 -4.98629,-0.29702 1.33701,-1.64059 2.67396,-3.29409 4.01097,-4.93462 0.0323,-0.0323 0.0582,-0.0646 0.084,-0.0969 0.67817,-0.8396 1.36282,-1.67283 2.04099,-2.51246 l 3.6e-4,-10e-4 c 0.0425,-2.57755 -0.26652,-5.14662 -0.87876,-7.63984 l -5.7e-4,-3.5e-4 z"
         fill="#f2f2f2"
         id="path1230" />
      <path
         d="m 293.41397,162.52941 10.90482,13.08578 -5.8159,-42.16529 -2.15664,1.07832 c -2.24862,1.12431 -3.6847,3.40657 -3.72524,5.92028 l 0.79297,22.08091 z"
         fill="#2f2e41"
         id="path1232" />
      <g
         id="g1238">
        <polygon
           points="291.38944,531.66 284.18929,512.71824 284.1091,512.74681 282.33903,513.41763 275.27081,516.10641 273.50074,516.77723 271.46646,517.55223 278.4743,530.90703 278.48701,530.94272 280.81383,535.38752 284.56054,542.52079 284.56372,542.52971 286.13677,545.5354 288.48201,550.00368 294.40981,547.75122 296.17669,547.07148 297.10638,546.72029 295.53736,542.59816 "
           fill="#ffb6b6"
           id="polygon1234" />
        <path
           d="m 274.88954,571.1194 c 0.81878,2.12912 3.19919,3.19975 5.32269,2.39309 l 2.8302,-1.07866 1.77006,-0.67081 7.0714,-2.67986 1.77898,-0.67399 3.69739,-1.40771 0.62695,-7.2349 1.51109,2.46518 0.003,0.009 1.96307,3.19832 1.03661,-0.38941 5.43182,-2.06583 -10.09081,-21.10613 -2.30482,0.72055 -0.8417,0.25964 -1.80817,0.56385 -6.74179,2.11057 -0.009,0.003 -0.4699,0.14729 -1.80821,0.56374 -0.7494,0.23681 2.35031,6.17423 -4.87433,7.07058 -1.33125,1.93077 -3.90065,5.65885 c -0.76721,1.11721 -0.9447,2.53652 -0.4638,3.80172 z"
           fill="#2f2e41"
           id="path1236" />
      </g>
      <g
         id="g1244">
        <polygon
           points="357.7088,552.82573 357.28297,532.56614 357.19784,532.56614 355.30531,532.60403 347.74465,532.76482 345.85212,532.80271 343.67572,532.85007 345.79535,547.78217 345.79535,547.82006 346.49557,552.78796 347.63111,560.76492 347.63111,560.77439 348.10424,564.13368 348.81394,569.12988 355.15387,568.99739 357.04641,568.95003 358.04003,568.9312 357.94537,564.52157 "
           fill="#ffb6b6"
           id="polygon1240" />
        <path
           d="m 328.92341,584.45946 c 0.0568,2.28042 1.93983,4.08782 4.2109,4.04057 l 3.02806,-0.0663 1.89253,-0.0379 7.56066,-0.15132 1.902,-0.0379 3.95539,-0.0852 3.01859,-6.60492 0.59615,2.82933 v 0.009 l 0.77589,3.67163 1.10717,-0.0189 5.81009,-0.12313 -2.4225,-23.26853 -2.41297,-0.0947 -0.88002,-0.0379 -1.89253,-0.0757 -7.05911,-0.27434 h -0.009 l -0.49208,-0.0189 -1.89253,-0.0758 -0.78542,-0.0284 0.14196,6.60492 -6.9645,5.02473 -1.902,1.37204 -5.57352,4.02163 c -1.09764,0.79495 -1.74115,2.07238 -1.71274,3.42559 z"
           fill="#2f2e41"
           id="path1242" />
      </g>
      <path
         d="m 365.72158,336.51249 -6.75234,-39.96117 14.49168,-5.83077 3.02861,44.1866 c 1.3571,0.82882 2.4993,2.04395 3.23274,3.58742 2.0091,4.22771 0.21054,9.28365 -4.01724,11.29272 -4.22771,2.0091 -9.28359,0.21052 -11.2927,-4.01719 -1.50333,-3.16357 -0.87384,-6.79017 1.30925,-9.25761 z"
         fill="#ffb6b6"
         id="path1246" />
      <path
         d="m 253.91951,159.01855 -26.30635,30.82961 -13.77344,-7.3688 31.93662,-30.68681 c -0.23565,-1.57261 -0.0371,-3.22845 0.67553,-4.78161 1.95196,-4.25439 6.98323,-6.12086 11.23765,-4.16882 4.25439,1.95196 6.12081,6.9832 4.16884,11.23759 -1.46069,3.18348 -4.64553,5.02883 -7.93886,4.93883 z"
         fill="#ffb6b6"
         id="path1248" />
      <circle
         cx="312.00604"
         cy="152.90929"
         r="21.781191"
         fill="#ffb6b6"
         id="circle1250" />
      <path
         d="m 281.9719,291.07517 58.69626,-6.41183 2.18096,10.17783 v 2.43856 l 1.25251,1.45468 0.45881,1.82603 1.19664,0.0966 c 0,0 -0.69614,1.23353 -0.19664,1.90337 0.38509,0.51641 1.87873,0.33861 2.48685,1.22534 6.16426,8.98836 22.13531,36.38012 14.4305,69.57006 l 1.09048,54.88757 -1.00784,4.31703 1.16605,2.80243 0.83395,4.19757 1.1888,86.82631 2.90795,10.17783 -4.36193,13.08578 -26.17156,1.45398 -4.36193,-16.72072 2.18096,-21.08264 -6.54289,-61.79395 -1.83942,-2.94658 1.05575,-3.00009 0.94425,-3.99991 -2.01619,-4.13423 -7.14778,-54.23904 v 0 c -1.86245,-4.35186 -2.63338,-9.09286 -2.24573,-13.8106 l 0.1635,-1.98981 -1.27317,-9.66115 -35.2589,57.42917 -11.77089,20.38497 1.22957,8.6974 7.77043,49.3026 11,12 2,16 -16,10 -18,-6 v -12 l -27.45083,-74.9793 31.22956,-92.46664 5.08891,-4.36193 -0.72699,-5.8159 4.8027,-4.8027 9.60581,-21.55283 4.41146,-9.48527 -3,-9 z"
         fill="#2f2e41"
         id="path1252" />
      <path
         d="m 301.77432,175.97868 h 23.13481 l 5.21771,15.99373 32.71445,15.26674 -7.26988,34.16842 -8.72385,29.8065 -2.57022,2.57022 1.11624,4.69966 h -5.64703 l 0.92161,6.1794 6.1794,9.08735 -66.49004,-1.42345 v -14.83074 l 5.20291,-20.93606 v -2e-5 c -6.56825,-14.45013 -2.90449,-23.1529 -2,-38.99998 l -5.77671,-21.95309 18.17469,-1.7774 5.8159,-17.85127 z"
         fill="#ca8a04"
         id="path1254" />
      <path
         d="m 286.70688,217.82091 5.08891,-12.35879 c 0,0 -0.72699,-8.72385 -15.99373,-10.90482 -15.26674,-2.18096 -44.25106,-4.36193 -44.25106,-4.36193 l 7.00944,-7.63494 3,-8 -14,-7 -8.02688,3.94515 -2.97312,5.05485 1,2 -4.34154,2.63427 c -5.40467,8.59835 -3.09409,19.92656 5.24631,25.72137 h 10e-6 l 3.24282,3.24283 4.75404,2.57308 5.8159,-0.72699 54.42889,5.8159 z"
         fill="#ca8a04"
         id="path1256" />
      <path
         d="m 345.75708,210.1471 12.35879,-5.08891 c 0,0 8.72385,0.72699 10.90482,15.99373 2.18096,15.26674 4.36193,55.25106 4.36193,55.25106 l 3.63494,7.99686 v 2.23534 l 3.2142,6.852 -1.93196,1.93196 5.26064,4.24744 -23.99059,8.72385 -5.16222,-13.19407 2.25427,-5.70761 -3.24282,-3.24282 -2.57308,-4.75404 0.72699,-5.8159 -5.8159,-65.42889 z"
         fill="#ca8a04"
         id="path1258" />
      <path
         d="m 353.39313,197.55599 h -5.95996 c -1.98975,-2.70007 -2.33984,-4.47998 -2.16992,-7.78003 -0.28027,2.22998 -5.02002,-4.59009 -4.75,-2.01001 0.0601,0.56006 2.9502,10.25 3.0498,10.79004 -2.76953,2.53003 -5.97998,3.85999 -9.5,4.31995 1.12012,-3.39001 -0.0195,-5.21997 -3.46973,-4.92004 0.17969,1.71997 -0.0498,3.47998 -0.62012,5.11011 -10.41992,-0.3501 -23,-6.42004 -35.42969,-11.18005 -0.4502,-3.13 0.0996,-6.41003 1.62988,-9.18005 -1.28027,2.14014 -2.53027,4.29004 -3.43018,6.61011 -0.19971,0.52002 -0.37988,1.04993 -0.54004,1.57996 -0.10986,0.38 -0.20996,0.76001 -0.2998,1.13 l -5.76025,0.31006 c 4.89014,-7.07007 4,-16.9801 9.9502,-22.31006 9.46973,-8.46997 1.47998,-20.80005 -2.47998,-32.29004 -0.12012,-2.97998 1.70996,-5.69995 4.52002,-6.70996 l 7.68994,-2.76001 c 9.77979,-3.51001 9.29004,-5.52002 18.73975,0.29004 9.4502,-2.90002 26,12.53003 26,24 0,1 0.12012,1.96997 0.31006,2.8999 -1.10986,0.14014 -2.18994,0.5 -3.1499,1.08008 1.31006,0.73999 2.58984,1.54004 3.82031,2.40991 0.95996,5.90015 0.88965,11.92004 -0.48047,17.76001 -1.54004,6.57007 1.26025,17.71997 2.33008,20.8501 z"
         fill="#2f2e41"
         id="path1260" />
      <path
         d="m 423.94381,588.96034 c 0,0.66003 -0.53003,1.19 -1.19006,1.19 H 169.46377 c -0.65997,0 -1.19,-0.52997 -1.19,-1.19 0,-0.66003 0.53003,-1.19 1.19,-1.19 h 253.28998 c 0.66003,0 1.19006,0.53003 1.19006,1.19 z"
         fill="#cccccc"
         id="path1262" />
    </g>
  </g>
</svg>
