<?xml version="1.0" encoding="iso-8859-1"?>
<!-- Generator: Adobe Illustrator 19.0.0, SVG Export Plug-In . SVG Version: 6.00 Build 0)  -->
<svg version="1.1" id="Layer_1" xmlns="http://www.w3.org/2000/svg" xmlns:xlink="http://www.w3.org/1999/xlink" x="0px" y="0px"
	 viewBox="0 0 512.006 512.006" style="enable-background:new 0 0 512.006 512.006;" xml:space="preserve">
<g>
	<g>
		<g>
			<path d="M256.006,91.225c11.782,0,21.333-9.551,21.333-21.333V21.337c0-11.782-9.551-21.333-21.333-21.333
				c-11.782,0-21.333,9.551-21.333,21.333v48.555C234.673,81.673,244.224,91.225,256.006,91.225z"/>
			<path d="M420.785,256.003c0,11.782,9.551,21.333,21.333,21.333h48.555c11.782,0,21.333-9.551,21.333-21.333
				s-9.551-21.333-21.333-21.333h-48.555C430.336,234.67,420.785,244.221,420.785,256.003z"/>
			<path d="M21.333,277.337h47.339c11.782,0,21.333-9.551,21.333-21.333s-9.551-21.333-21.333-21.333H21.333
				C9.551,234.67,0,244.221,0,256.003S9.551,277.337,21.333,277.337z"/>
			<path d="M402.692,139.487l46.421-46.421c8.331-8.331,8.331-21.839,0-30.17s-21.839-8.331-30.17,0l-46.421,46.421
				c-8.331,8.331-8.331,21.839,0,30.17S394.361,147.818,402.692,139.487z"/>
			<path d="M109.318,139.485c8.331,8.331,21.839,8.331,30.17,0s8.331-21.839,0-30.17L93.067,62.894
				c-8.331-8.331-21.839-8.331-30.17,0s-8.331,21.839,0,30.17L109.318,139.485z"/>
			<path d="M441.328,154.164l-22.336,9.493c-10.843,4.609-15.898,17.135-11.289,27.978s17.135,15.897,27.978,11.289l22.336-9.493
				c10.843-4.609,15.898-17.135,11.289-27.978C464.697,154.609,452.171,149.555,441.328,154.164z"/>
			<path d="M52.949,196.977l22.507,9.088c10.925,4.411,23.358-0.869,27.769-11.794s-0.869-23.358-11.794-27.769l-22.507-9.088
				c-10.925-4.411-23.358,0.869-27.769,11.794C36.744,180.133,42.024,192.566,52.949,196.977z"/>
			<path d="M163.652,93.028c4.609,10.843,17.135,15.898,27.978,11.289c10.843-4.609,15.898-17.135,11.289-27.978l-9.493-22.336
				c-4.609-10.843-17.135-15.898-27.978-11.289c-10.843,4.609-15.897,17.135-11.289,27.978L163.652,93.028z"/>
			<path d="M317.738,103.222c10.925,4.411,23.358-0.869,27.769-11.794l9.088-22.507c4.411-10.925-0.869-23.358-11.794-27.769
				s-23.358,0.869-27.769,11.794l-9.088,22.507C301.533,86.377,306.813,98.81,317.738,103.222z"/>
			<path d="M490.673,298.67H399.07c4.115-13.708,6.263-28.04,6.263-42.667c0-82.481-66.853-149.333-149.333-149.333
				c-82.466,0-149.333,66.859-149.333,149.333c0,14.623,2.153,28.955,6.275,42.667H21.34c-11.782,0-21.333,9.551-21.333,21.333
				s9.551,21.333,21.333,21.333h111.65h246.042h111.641c11.782,0,21.333-9.551,21.333-21.333S502.455,298.67,490.673,298.67z
				 M213.34,256.003c0-23.567,19.099-42.667,42.667-42.667s42.667,19.099,42.667,42.667s-19.099,42.667-42.667,42.667
				S213.34,279.57,213.34,256.003z M329.897,298.67c7.265-12.554,11.443-27.118,11.443-42.667c0-47.131-38.202-85.333-85.333-85.333
				s-85.333,38.202-85.333,85.333c0,15.549,4.179,30.113,11.443,42.667h-23.789c-5.892-13.364-8.993-27.797-8.993-42.667
				c0-58.909,47.763-106.667,106.667-106.667c58.917,0,106.667,47.75,106.667,106.667c0,14.883-3.094,29.316-8.975,42.667H329.897z"
				/>
			<path d="M448.006,384.003h-384c-11.782,0-21.333,9.551-21.333,21.333c0,11.782,9.551,21.333,21.333,21.333h384
				c11.782,0,21.333-9.551,21.333-21.333C469.34,393.554,459.789,384.003,448.006,384.003z"/>
			<path d="M405.34,469.337H106.673c-11.782,0-21.333,9.551-21.333,21.333s9.551,21.333,21.333,21.333H405.34
				c11.782,0,21.333-9.551,21.333-21.333S417.122,469.337,405.34,469.337z"/>
		</g>
	</g>
</g>
<g>
</g>
<g>
</g>
<g>
</g>
<g>
</g>
<g>
</g>
<g>
</g>
<g>
</g>
<g>
</g>
<g>
</g>
<g>
</g>
<g>
</g>
<g>
</g>
<g>
</g>
<g>
</g>
<g>
</g>
</svg>
