<?xml version="1.0" encoding="UTF-8" standalone="no"?>
<!-- Created with Inkscape (http://www.inkscape.org/) -->

<svg
   width="512.0px"
   height="512.0px"
   viewBox="0 0 512.0 512.0"
   version="1.1"
   id="SVGRoot"
   sodipodi:docname="woman.svg"
   inkscape:version="1.1.2 (1:1.1+202202050950+0a00cf5339)"
   xmlns:inkscape="http://www.inkscape.org/namespaces/inkscape"
   xmlns:sodipodi="http://sodipodi.sourceforge.net/DTD/sodipodi-0.dtd"
   xmlns="http://www.w3.org/2000/svg"
   xmlns:svg="http://www.w3.org/2000/svg">
  <sodipodi:namedview
     id="namedview1478"
     pagecolor="#ffffff"
     bordercolor="#666666"
     borderopacity="1.0"
     inkscape:pageshadow="2"
     inkscape:pageopacity="0.0"
     inkscape:pagecheckerboard="0"
     inkscape:document-units="px"
     showgrid="true"
     inkscape:zoom="0.5209506"
     inkscape:cx="150.68607"
     inkscape:cy="167.96218"
     inkscape:window-width="1920"
     inkscape:window-height="1000"
     inkscape:window-x="0"
     inkscape:window-y="44"
     inkscape:window-maximized="1"
     inkscape:current-layer="layer1">
    <inkscape:grid
       type="xygrid"
       id="grid1484" />
  </sodipodi:namedview>
  <defs
     id="defs1473" />
  <g
     inkscape:label="Layer 1"
     inkscape:groupmode="layer"
     id="layer1">
    <g
       id="g1591"
       transform="matrix(0.72856329,0,0,0.72856329,33.411537,1.3475274)">
      <path
         d="m 526.36927,329.63871 c 19.90002,12.82996 38.54004,30.01001 56,51.20001 v 32.39996 c -8.52002,-2.89996 -41.03998,-14.91998 -53.88,-33.92999 -14.83997,-21.96997 -17.47998,-55.32001 -5.12,-63.66998 3.21997,-2.17004 7.13,-2.44 11.41998,-1.25 13.52997,9.72998 26.47003,21.52997 38.83002,35.27997 4.38,6.73004 7.09009,15.29999 8.75,23.96002 v 0.40997 c -15.98999,-22.25995 -34.79004,-36.69995 -56,-44.39996 z"
         fill="#ca8a04"
         id="path1509" />
      <path
         d="m 525.36927,130.63871 c 19.90002,12.82996 38.54004,30.01001 56,51.20001 v 7.39996 c -1.66992,-0.57001 -4.25,-1.47998 -7.42993,-2.72998 -14.28003,-16.92999 -30.56006,-28.33002 -48.57007,-34.87 12.59998,8.12 24.69995,17.98999 36.31006,29.51996 -12.28003,-5.90997 -26.64008,-14.66998 -34.19006,-25.84998 -0.79999,-1.17999 -1.56,-2.37 -2.27997,-3.57001 -12.70001,-21.08002 -13.54004,-44.20001 -1.84003,-52.09998 12.35999,-8.35004 34.03003,3.47998 48.87,25.44 8.57996,12.70996 10.98999,32.42999 11.47998,46.77997 -0.78992,1.04004 -1.56995,2.10004 -2.34998,3.17999 -15.98999,-22.25995 -34.79004,-36.69995 -56,-44.39996 z"
         fill="#ca8a04"
         id="path1511" />
      <path
         d="m 638.6493,248.84418 v 0.01 c -1.42004,3.92999 -3.19995,7.89996 -5.32007,11.81 -3.1499,5.82001 -7.98999,11.21997 -13.46997,16.04999 -5.87,5.17999 -12.48999,9.70001 -18.58008,13.37 -8.5,5.13 -15.96997,8.60999 -18.90991,9.92999 v -3.14996 c 16.89001,-20.10004 34.84998,-36.48004 54,-48.82001 -20.34009,7.38 -38.44995,20.97998 -54,41.70996 V 275.8642 c 16.89001,-20.10004 34.84998,-36.48004 54,-48.82001 -20.34009,7.38 -38.44995,20.97998 -54,41.70996 V 254.8642 c 16.66992,-19.83002 34.37,-36.04004 53.23999,-48.32001 8.84009,7.10999 9.60999,24.26001 3.04004,42.29999 z"
         fill="#ca8a04"
         id="path1513" />
      <circle
         cx="143.68463"
         cy="245.54543"
         r="143.68463"
         fill="#ff6884"
         id="circle1515" />
      <path
         id="uuid-6b4a4d5d-b113-464e-95c4-a63f7642af13-79"
         d="m 593.8654,475.91104 c 12.08511,10.18033 16.6283,24.66792 10.14821,32.3579 -6.48009,7.68998 -21.52745,5.66969 -33.6155,-4.51589 -4.88449,-4.00249 -8.73944,-9.11651 -11.2423,-14.91424 l -50.66036,-43.78114 21.05193,-23.3355 47.70709,45.63794 c 6.14044,1.48281 11.83636,4.41493 16.61093,8.55093 z"
         fill="#fcb4b4" />
      <polygon
         points="432.36927,256.63871 430.84826,405.52921 518.77357,477.74514 552.95795,443.519 491.02708,363.99382 "
         fill="#2f2e41"
         id="polygon1518" />
      <polygon
         points="357.33582,209.19408 283.55596,224.62355 297.74334,160.11791 345.16338,162.39889 "
         fill="#fcb4b4"
         id="polygon1520" />
      <polygon
         points="357.33582,209.19408 283.55596,224.62355 297.74334,160.11791 345.16338,162.39889 "
         isolation="isolate"
         opacity="0.1"
         id="polygon1522" />
      <circle
         cx="320.27975"
         cy="124.33784"
         r="53.08847"
         fill="#fcb4b4"
         id="circle1524" />
      <path
         d="m 296.53303,144.83965 v -3e-5 c 0,0 -5.35571,-0.0519 -16.49579,-2.12351 -11.14006,-2.07163 8.20171,23.95969 8.20171,23.95969 C 235.81493,144.78565 252.59056,89.26199 252.59056,89.26199 199.38608,79.087 221.67453,31.78948 221.67453,31.78948 c 0,0 17.53794,-33.84457 71.45114,-31.6909 53.91317,2.15367 28.44356,55.32713 28.44356,55.32713 35.12577,0.06654 39.07767,31.72302 39.07767,31.72302 0,0 -12.66255,1.58075 -35.67488,7.42121 -23.01226,5.84041 -28.43888,50.26964 -28.43888,50.26964 l -7e-5,3e-5 -3e-5,3e-5 z"
         fill="#2f2e41"
         id="path1526" />
      <path
         d="m 294.42832,204.30801 -2.39764,-4.66929 c 0,0 -42.66142,4.94488 -49.66142,11.47244 -7,6.52756 -23,35.52756 -23,35.52756 l 35,30 z"
         fill="#ffb6b6"
         id="path1528" />
      <path
         d="m 347.36927,203.17415 c 0,0 32,-8.53543 50,9.46457 18,18 39,51 39,51 l -1,26 -50,-24.10236 -38,-62.3622 z"
         fill="#ffb6b6"
         id="path1530" />
      <path
         d="m 355.52675,199.63871 c 0,0 41.84252,-15 68.84252,17 27,32 35,133 35,133 0,0 61,187 46,189 -15,2 -106.53979,7.52756 -106.53979,7.52756 l -31.46021,-203.52756 -14,-143 z"
         fill="#2f2e41"
         id="path1532" />
      <path
         d="m 259.36927,379.63871 -10,36 136,10 c 0,0 -5,-30.09449 0,-41.04724 z"
         fill="#fcb4b4"
         id="path1534" />
      <polygon
         points="415.36927,610.63871 336.36927,613.63871 342.36927,699.63871 417.88895,697.63871 "
         fill="#fcb4b4"
         id="polygon1536" />
      <polygon
         points="295.57041,621.67327 218.54477,605.13198 196.36927,698.63871 275.42791,698.10382 "
         fill="#fcb4b4"
         id="polygon1538" />
      <path
         d="m 353.36927,199.63871 h -61.33858 l -49.66142,66 11,135 c 0,0 25,-7 60,-7 h 75 c 0,0 -11,-35 3,-49 14,-14 4,-79 4,-79 z"
         fill="#ca8a04"
         id="path1540" />
      <path
         d="m 244.36927,404.63871 -56,203 c 0,0 82.46021,33.13386 132.2301,23.56693 49.76989,-9.56693 117.7699,-12.56693 117.7699,-12.56693 l -48,-206 z"
         fill="#2f2e41"
         id="path1542" />
      <path
         id="uuid-dda76ffd-f581-4aef-8961-053e5e9dc1b0-80"
         d="m 373.8654,478.91104 c 12.08511,10.18033 16.6283,24.66792 10.14821,32.3579 -6.48009,7.68998 -21.52745,5.66969 -33.6155,-4.51589 -4.88449,-4.00249 -8.73944,-9.11651 -11.2423,-14.91424 l -50.66036,-43.78114 21.05193,-23.3355 47.70709,45.63794 c 6.14044,1.48281 11.83636,4.41493 16.61093,8.55093 z"
         fill="#fcb4b4" />
      <polygon
         points="222.36927,256.63871 220.84826,405.52921 308.77357,477.74514 342.95795,443.519 281.02708,363.99382 "
         fill="#2f2e41"
         id="polygon1545" />
      <path
         d="m 296.21179,199.63871 c 0,0 -41.84252,-15 -68.84252,17 -27,32 -35,133 -35,133 0,0 -61,187 -46,189 15,2 106.53979,7.52756 106.53979,7.52756 l 31.46021,-203.52756 14,-143 z"
         fill="#2f2e41"
         id="path1547" />
      <rect
         x="581.36926"
         y="161.6387"
         width="2"
         height="348"
         fill="#3f3d56"
         id="rect1549" />
      <path
         d="m 27.36927,518.63871 c 19.90002,12.82996 38.54004,30.01001 56,51.20001 v 32.39996 c -8.52002,-2.89996 -41.03998,-14.91998 -53.88,-33.92999 -14.83997,-21.96997 -17.47998,-55.32001 -5.12,-63.66998 3.21997,-2.17004 7.13,-2.44 11.41998,-1.25 13.52997,9.72998 26.47003,21.52997 38.83002,35.27997 4.38,6.73004 7.09009,15.29999 8.75,23.96002 v 0.40997 c -15.98999,-22.25995 -34.79004,-36.69995 -56,-44.39996 z"
         fill="#ca8a04"
         id="path1551" />
      <path
         d="m 26.36927,319.63871 c 19.90002,12.82996 38.54004,30.01001 56,51.20001 v 7.39996 c -1.66992,-0.57001 -4.25,-1.47998 -7.42993,-2.72998 -14.28003,-16.92999 -30.56006,-28.33002 -48.57007,-34.87 12.59998,8.12 24.69995,17.98999 36.31006,29.51996 -12.28003,-5.90997 -26.64008,-14.66998 -34.19006,-25.84998 -0.79999,-1.17999 -1.56,-2.37 -2.27997,-3.57001 -12.70001,-21.08002 -13.54004,-44.20001 -1.84003,-52.09998 12.35999,-8.35004 34.03003,3.47998 48.87,25.44 8.57996,12.70996 10.98999,32.42999 11.47998,46.77997 -0.78992,1.04004 -1.56995,2.10004 -2.34998,3.17999 -15.98999,-22.25995 -34.79004,-36.69995 -56,-44.39996 z"
         fill="#ca8a04"
         id="path1553" />
      <path
         d="m 139.6493,437.84418 v 0.01 c -1.42004,3.92999 -3.19995,7.89996 -5.32007,11.81 -3.1499,5.82001 -7.98999,11.21997 -13.46997,16.04999 -5.87,5.17999 -12.48999,9.70001 -18.58008,13.37 -8.5,5.13 -15.96997,8.60999 -18.90991,9.92999 v -3.14996 c 16.89001,-20.10004 34.84998,-36.48004 54,-48.82001 -20.34009,7.38 -38.44995,20.97998 -54,41.70996 V 464.8642 c 16.89001,-20.10004 34.84998,-36.48004 54,-48.82001 -20.34009,7.38 -38.44995,20.97998 -54,41.70996 V 443.8642 c 16.66992,-19.83002 34.37,-36.04004 53.23999,-48.32001 8.84009,7.10999 9.60999,24.26001 3.04004,42.29999 z"
         fill="#ca8a04"
         id="path1555" />
      <rect
         x="82.36927"
         y="350.6387"
         width="2"
         height="348"
         fill="#3f3d56"
         id="rect1557" />
    </g>
  </g>
</svg>
